<svg id="Layer_1" data-name="Layer 1" xmlns="http://www.w3.org/2000/svg" viewBox="0 0 377.56 108.08"><defs><style>.cls-1{fill:#0eb9b3;}</style></defs><title>deevo_logo</title><path class="cls-1" d="M22.26,114.89c-13.67,0-20-6.42-20-20.2V59.15c0-13.68,6.37-20,20-20H57.38v6.84H22.26c-8.51,0-13.21,4.69-13.21,13.21V94.69c0,8.61,4.69,13.36,13.21,13.36H49c8.62,0,13.36-4.74,13.36-13.36V6.81h6.83V94.69c0,13.78-6.42,20.2-20.2,20.2H22.26Z" transform="translate(-2.22 -6.81)"/><path class="cls-1" d="M100.55,114.89c-13.67,0-20-6.42-20-20.2V59.15c0-13.67,6.37-20,20-20h26.78c13.78,0,20.2,5.88,20.2,18.5V65.4c0,12-5.85,16.89-20.2,16.89H92.89V75.46h34.43c4.34,0,13.36,0,13.36-10.06V57.61c0-4.36-1.74-11.67-13.36-11.67H100.55c-8.51,0-13.21,4.69-13.21,13.21V94.69c0,8.61,4.69,13.36,13.21,13.36h40.2v6.84h-40.2Z" transform="translate(-2.22 -6.81)"/><path class="cls-1" d="M178.89,114.89c-13.68,0-20-6.42-20-20.2V59.15c0-13.67,6.37-20,20-20h26.78c13.78,0,20.19,5.88,20.19,18.5V65.4c0,12-5.85,16.89-20.19,16.89H171.24V75.46h34.43c4.34,0,13.36,0,13.36-10.06V57.61c0-4.36-1.74-11.67-13.36-11.67H178.89c-8.51,0-13.21,4.69-13.21,13.21V94.69c0,8.61,4.69,13.36,13.21,13.36h40.2v6.84h-40.2Z" transform="translate(-2.22 -6.81)"/><path class="cls-1" d="M266.19,114.89a2.24,2.24,0,0,1-2.08-1.4L231.9,39.1h7.35l29.21,65.63L297.35,39.1h7.5l-32.36,74.4a2.24,2.24,0,0,1-2.08,1.39h-4.23Z" transform="translate(-2.22 -6.81)"/><path class="cls-1" d="M372.94,62.86V97.57A10.46,10.46,0,0,1,362.49,108h-33a10.46,10.46,0,0,1-10.45-10.45V56.64a10.46,10.46,0,0,1,10.45-10.45h25.19V39.35H329.53a17.31,17.31,0,0,0-17.29,17.29V97.57a17.31,17.31,0,0,0,17.29,17.29h33a17.31,17.31,0,0,0,17.29-17.29V62.86h-6.84ZM319.08,97.57V56.64a10.46,10.46,0,0,1,10.45-10.45h25.19V39.35H329.53a17.31,17.31,0,0,0-17.29,17.29V97.57m39.68,15.27H340.1v-3.27h11.83v3.27Z" transform="translate(-2.22 -6.81)"/><path class="cls-1" d="M372.94,56.64v8.14a26.18,26.18,0,0,1,6.84-.18v-8a17.31,17.31,0,0,0-17.29-17.29H337.3v6.84h25.19A10.46,10.46,0,0,1,372.94,56.64Z" transform="translate(-2.22 -6.81)"/></svg>